<?xml version="1.0" encoding="UTF-8" standalone="no"?>
<svg
   width="88"
   height="31"
   viewBox="0 0 88 31"
   version="1.1"
   id="svg934"
   sodipodi:docname="miraheze_footer1.svg"
   inkscape:version="1.1 (c68e22c387, 2021-05-23)"
   xmlns:inkscape="http://www.inkscape.org/namespaces/inkscape"
   xmlns:sodipodi="http://sodipodi.sourceforge.net/DTD/sodipodi-0.dtd"
   xmlns="http://www.w3.org/2000/svg"
   xmlns:svg="http://www.w3.org/2000/svg">
  <sodipodi:namedview
     id="namedview936"
     pagecolor="#ffffff"
     bordercolor="#999999"
     borderopacity="1"
     inkscape:pageshadow="0"
     inkscape:pageopacity="0"
     inkscape:pagecheckerboard="0"
     showgrid="false"
     showguides="false"
     inkscape:zoom="3.5274986"
     inkscape:cx="57.547861"
     inkscape:cy="5.386253"
     inkscape:window-width="1360"
     inkscape:window-height="705"
     inkscape:window-x="-8"
     inkscape:window-y="-8"
     inkscape:window-maximized="1"
     inkscape:current-layer="svg934" />
  <defs
     id="defs896">
    <linearGradient
       id="gradient-fill"
       x1="43.671"
       y1="0.188"
       x2="44.204"
       y2="30.688"
       gradientUnits="userSpaceOnUse"
       gradientTransform="translate(-0.40091116)">
      <stop
         id="stop4257"
         offset="0"
         style="stop-color:rgb(255, 255, 255); stop-opacity:1" />
      <stop
         id="stop4259"
         offset="1"
         style="stop-color:rgb(235, 235, 235); stop-opacity:1" />
    </linearGradient>
    <linearGradient
       id="gradient-stroke"
       x1="43.671"
       y1="0.188"
       x2="44.204"
       y2="30.688"
       gradientUnits="userSpaceOnUse"
       gradientTransform="translate(-0.40091116)">
      <stop
         id="stop4220"
         offset="0"
         style="stop-color:rgb(200, 200, 200); stop-opacity:1" />
      <stop
         id="stop4222"
         offset="1"
         style="stop-color:rgb(120, 120, 120); stop-opacity:1" />
    </linearGradient>
    <linearGradient
       id="gradient"
       x1="4"
       x2="31"
       y1="28"
       y2="3"
       gradientUnits="userSpaceOnUse">
      <stop
         offset="0%"
         stop-color="#0a00b2"
         id="stop887" />
      <stop
         offset="50%"
         stop-color="#ff0000"
         id="stop889" />
      <stop
         offset="100%"
         stop-color="#fffc00"
         id="stop891" />
    </linearGradient>
    <style
       id="style894">
			.button {
				fill: url(#gradient-fill);
				stroke-width: 0.5;
				stroke: url(#gradient-stroke);
			}
			.wordmark {
				fill: #000000;
			}
			.powered {
				fill: #000000;
			}
			.petals {
				fill: url(#gradient);
			}
			.petal {
				opacity: 0.65;
			}
		</style>
  </defs>
  <path
     id="button"
     class="button"
     d="M 4.5590888,0.2 H 82.499089 a 4.78,4.78 0 0 1 4.78,4.78 v 20.94 a 4.78,4.78 0 0 1 -4.78,4.78 H 4.5590888 A 4.78,4.78 0 0 1 -0.22091116,25.92 V 4.98 A 4.78,4.78 0 0 1 4.5590888,0.2 Z"
     style="fill:url(#gradient-fill);stroke:url(#gradient-stroke)" />
  <g
     id="g1068"
     transform="matrix(0.19037585,0,0,0.19037585,5.7306326,2.7154518)">
    <path
       style="fill:#8e7650;fill-opacity:1;fill-rule:evenodd;stroke:none;stroke-width:1px;stroke-linecap:butt;stroke-linejoin:miter;stroke-opacity:1"
       d="m 56.721681,48.541548 21.189606,0.06232 10.968739,18.946003 -10.84409,18.696711 H 56.659356 L 45.752943,67.487547 Z"
       id="path4756"
       inkscape:connector-curvature="0" />
    <path
       style="fill:#ffc200;fill-opacity:1;fill-rule:evenodd;stroke:none;stroke-width:1px;stroke-linecap:butt;stroke-linejoin:miter;stroke-opacity:1"
       d="M 56.7219,0.01584202 77.911507,0.07816637 88.880246,19.02417 78.036156,37.720879 H 56.659576 L 45.753162,18.961846 Z"
       id="path4756-4"
       inkscape:connector-curvature="0" />
    <path
       style="fill:#ffc200;fill-opacity:1;fill-rule:evenodd;stroke:none;stroke-width:1px;stroke-linecap:butt;stroke-linejoin:miter;stroke-opacity:1"
       d="M 56.7219,97.294954 77.911507,97.357279 88.880246,116.30329 78.036156,135 H 56.659576 L 45.753162,116.24097 Z"
       id="path4756-4-7"
       inkscape:connector-curvature="0"
       inkscape:transform-center-x="23.96383"
       inkscape:transform-center-y="-86.164066" />
    <path
       style="fill:#ffc200;fill-opacity:1;fill-rule:evenodd;stroke:none;stroke-width:1px;stroke-linecap:butt;stroke-linejoin:miter;stroke-opacity:1"
       d="m 98.666142,72.694267 21.189608,0.06232 10.96874,18.946004 -10.84409,18.696719 H 98.603817 L 87.697403,91.640271 Z"
       id="path4756-4-7-0"
       inkscape:connector-curvature="0"
       inkscape:transform-center-x="23.963829"
       inkscape:transform-center-y="-86.16407" />
    <path
       style="fill:#ffc200;fill-opacity:1;fill-rule:evenodd;stroke:none;stroke-width:1px;stroke-linecap:butt;stroke-linejoin:miter;stroke-opacity:1"
       d="m 98.666356,24.329153 21.189604,0.06232 10.96874,18.946001 -10.84409,18.696715 H 98.604032 L 87.697618,43.275159 Z"
       id="path4756-4-7-0-4"
       inkscape:connector-curvature="0"
       inkscape:transform-center-x="23.963831"
       inkscape:transform-center-y="-86.164068" />
    <path
       style="fill:#ffc200;fill-opacity:1;fill-rule:evenodd;stroke:none;stroke-width:1px;stroke-linecap:butt;stroke-linejoin:miter;stroke-opacity:1"
       d="m 14.946578,24.329157 21.1464,0.06232 10.94636,18.945997 -10.821965,18.696715 H 14.884381 L 4.0002036,43.275159 Z"
       id="path4756-4-7-0-4-0"
       inkscape:connector-curvature="0"
       inkscape:transform-center-x="23.914978"
       inkscape:transform-center-y="-86.164069" />
    <path
       style="fill:#ffc200;fill-opacity:1;fill-rule:evenodd;stroke:none;stroke-width:1px;stroke-linecap:butt;stroke-linejoin:miter;stroke-opacity:1"
       d="M 14.968739,72.694267 36.158346,72.756587 47.12708,91.702591 36.282994,110.39931 H 14.906415 L 4,91.640276 Z"
       id="path4756-4-7-0-4-5"
       inkscape:connector-curvature="0"
       inkscape:transform-center-x="23.96383"
       inkscape:transform-center-y="-86.16407" />
  </g>
  <g
     aria-label="Miraheze"
     id="text2251"
     style="font-size:10.6667px;font-family:Arial;-inkscape-font-specification:Arial;stroke-width:0.25">
    <g
       id="path25456">
      <path
         style="color:#000000;-inkscape-font-specification:'Ubuntu Medium';fill:#000000;-inkscape-stroke:none"
         d="m 36.003237,16.079908 q 0.234667,0.405335 0.522668,0.992003 0.288001,0.586669 0.586669,1.237337 0.298667,0.640003 0.586668,1.312005 0.298668,0.661335 0.544002,1.22667 0.245334,-0.565335 0.533335,-1.22667 0.288001,-0.672002 0.586668,-1.312005 0.298668,-0.650668 0.586669,-1.237337 0.288001,-0.586668 0.522668,-0.992003 h 1.216004 q 0.096,0.810669 0.181334,1.728006 0.08533,0.906669 0.149334,1.866672 0.07467,0.949336 0.128,1.920006 0.064,0.960003 0.106667,1.877339 h -1.322671 q -0.04267,-1.29067 -0.106667,-2.656008 -0.05333,-1.365338 -0.170667,-2.645342 -0.117334,0.245334 -0.277334,0.586669 -0.160001,0.341334 -0.341335,0.746669 -0.181333,0.394668 -0.373334,0.821336 -0.181334,0.426668 -0.362668,0.832002 -0.170667,0.394668 -0.320001,0.74667 -0.149334,0.341334 -0.256001,0.586668 h -1.00267 q -0.106667,-0.245334 -0.256,-0.597335 -0.149334,-0.352001 -0.330668,-0.746669 -0.170667,-0.405335 -0.362668,-0.832003 -0.181334,-0.426668 -0.362668,-0.821336 -0.181334,-0.394668 -0.341334,-0.736002 -0.160001,-0.352001 -0.277334,-0.586669 -0.117334,1.280004 -0.181334,2.645342 -0.05333,1.365338 -0.096,2.656008 h -1.322671 q 0.04267,-0.917336 0.096,-1.898672 0.064,-0.981337 0.128,-1.94134 0.07467,-0.970669 0.160001,-1.877339 0.08533,-0.906669 0.181334,-1.674672 z"
         id="path25541" />
      <path
         style="color:#000000;-inkscape-font-specification:'Ubuntu Medium';fill:#000000;-inkscape-stroke:none"
         d="m 34.644531,15.955078 -0.01367,0.109375 c -0.06419,0.513486 -0.124652,1.072213 -0.18164,1.677734 -0.05696,0.605203 -0.110326,1.233085 -0.160157,1.88086 -0.04267,0.640063 -0.08428,1.287123 -0.126953,1.941406 l -0.002,0.002 c -0.03557,0.654527 -0.06724,1.288486 -0.0957,1.900391 l -0.0059,0.130859 h 1.574218 l 0.0039,-0.121094 c 0.02842,-0.85955 0.06214,-1.745012 0.09766,-2.654296 v -0.002 c 0.03489,-0.743802 0.08782,-1.456591 0.146484,-2.162109 0.0256,0.05527 0.04474,0.08983 0.07227,0.150391 v 0.002 c 0.106511,0.227223 0.221023,0.471514 0.341797,0.734375 0.120354,0.261947 0.240879,0.53495 0.361328,0.818359 v 0.002 h 0.002 c 0.12761,0.283576 0.247969,0.560849 0.361328,0.830078 v 0.002 0.002 c 0.120438,0.26213 0.231067,0.508804 0.330078,0.742187 0.09966,0.234906 0.184537,0.435568 0.25586,0.59961 l 0.0332,0.07422 h 1.166015 l 0.0332,-0.07422 c 0.07106,-0.163435 0.15633,-0.360398 0.255859,-0.587891 0.09921,-0.233851 0.206919,-0.481908 0.320312,-0.744141 v -0.002 c 0.120642,-0.269697 0.240727,-0.546349 0.361329,-0.830078 l 0.002,-0.002 c 0.127488,-0.283292 0.250698,-0.556321 0.371093,-0.818359 v -0.002 c 0.120634,-0.269652 0.235498,-0.51737 0.341797,-0.74414 0.027,-0.0576 0.04514,-0.09495 0.07031,-0.148438 0.05747,0.704572 0.109658,1.415403 0.138672,2.158203 v 0.002 c 0.04264,0.909682 0.07899,1.794459 0.107422,2.654296 l 0.0039,0.121094 h 1.574219 l -0.0059,-0.130859 c -0.02846,-0.611799 -0.06476,-1.2388 -0.107422,-1.878906 v -0.002 c -0.03555,-0.64675 -0.07721,-1.287298 -0.126953,-1.919921 v -0.002 c -0.04271,-0.640371 -0.09345,-1.262176 -0.15039,-1.867187 -0.05698,-0.612481 -0.117502,-1.190804 -0.181641,-1.732422 l -0.01367,-0.109375 h -1.398437 l -0.03516,0.0625 c -0.158436,0.273664 -0.334443,0.607055 -0.527343,1 -0.192277,0.391674 -0.388632,0.804217 -0.587891,1.238281 -0.19969,0.427909 -0.395387,0.867232 -0.587891,1.316407 -0.151331,0.347502 -0.286253,0.659036 -0.419922,0.966796 -0.134784,-0.307603 -0.270991,-0.619701 -0.427734,-0.966796 l -0.002,-0.002 c -0.191934,-0.447777 -0.386861,-0.88586 -0.585938,-1.3125 v -0.002 c -0.199259,-0.434064 -0.395614,-0.846607 -0.58789,-1.238281 -0.192901,-0.392945 -0.368907,-0.726336 -0.527344,-1 l -0.03516,-0.0625 h -0.07227 z m 0.222656,0.25 h 1.060547 c 0.146848,0.257153 0.307379,0.557348 0.486328,0.921875 0.191478,0.390046 0.385286,0.801496 0.583985,1.234375 H 37 c 0.198532,0.425428 0.392487,0.861767 0.583984,1.308594 v 0.002 h 0.002 c 0.198897,0.440414 0.379702,0.850337 0.542969,1.226562 l 0.115235,0.263672 0.113281,-0.263672 c 0.163531,-0.376832 0.341221,-0.785714 0.533203,-1.226562 v -0.002 c 0.191497,-0.446827 0.387405,-0.883166 0.585937,-1.308594 0.198699,-0.432879 0.394461,-0.844329 0.585938,-1.234375 0.17894,-0.364507 0.337533,-0.66473 0.484375,-0.921875 h 1.029297 c 0.05932,0.508808 0.116781,1.043974 0.169922,1.615234 0.05677,0.603251 0.105839,1.224353 0.148437,1.863282 0.0497,0.631889 0.09145,1.271818 0.126953,1.917968 h 0.002 v 0.002 c 0.03964,0.594584 0.07031,1.174236 0.09766,1.74414 h -1.070313 c -0.02779,-0.823978 -0.06082,-1.667846 -0.101562,-2.537109 -0.03563,-0.912275 -0.09149,-1.7967 -0.169922,-2.652344 l -0.04297,-0.451172 -0.195312,0.410156 c -0.07842,0.163961 -0.170578,0.360123 -0.277344,0.587891 -0.107036,0.228341 -0.220652,0.477253 -0.341797,0.748047 -0.120811,0.262954 -0.245174,0.536152 -0.373047,0.820312 l -0.002,0.002 c -0.120596,0.283754 -0.240773,0.560602 -0.361328,0.830078 v 0.002 h -0.002 c -0.11388,0.263347 -0.22063,0.51308 -0.320313,0.748047 -0.08618,0.196984 -0.155857,0.36078 -0.220703,0.509765 H 37.802734 C 37.737707,22.215039 37.666821,22.048216 37.580078,21.84375 37.48051,21.609054 37.370583,21.360196 37.25,21.097656 l -0.002,-0.0039 c -0.113394,-0.269218 -0.233954,-0.545024 -0.361328,-0.828125 l -0.002,-0.002 C 36.763783,19.979068 36.642562,19.704927 36.521484,19.441406 36.40048,19.178043 36.28651,18.932966 36.179687,18.705078 h 0.002 C 36.07454,18.469459 35.981582,18.273712 35.902344,18.115234 l -0.197266,-0.392578 -0.03906,0.435547 c -0.0784,0.855301 -0.138893,1.740376 -0.181641,2.652344 -0.03394,0.868991 -0.06628,1.71344 -0.09375,2.537109 h -1.070313 c 0.0269,-0.5712 0.0568,-1.157479 0.08984,-1.765625 v -0.002 c 0.04262,-0.653496 0.08629,-1.300154 0.128906,-1.939453 0.04973,-0.646449 0.103341,-1.271311 0.160157,-1.875 0.05307,-0.563852 0.10876,-1.077777 0.167968,-1.560547 z"
         id="path25543" />
    </g>
    <g
       id="path25458">
      <path
         style="color:#000000;-inkscape-font-specification:'Ubuntu Medium';fill:#000000;-inkscape-stroke:none"
         d="m 45.059253,23.471931 h -1.290671 v -5.578684 h 1.290671 z m 0.138667,-7.210689 q 0,0.362668 -0.234667,0.576002 -0.234668,0.213334 -0.554669,0.213334 -0.330667,0 -0.565335,-0.213334 -0.234667,-0.213334 -0.234667,-0.576002 0,-0.373335 0.234667,-0.586669 0.234668,-0.213334 0.565335,-0.213334 0.320001,0 0.554669,0.213334 0.234667,0.213334 0.234667,0.586669 z"
         id="path25549" />
      <path
         style="color:#000000;-inkscape-font-specification:'Ubuntu Medium';fill:#000000;-inkscape-stroke:none"
         d="m 44.408203,15.335938 c -0.247326,-1e-6 -0.470369,0.08421 -0.648437,0.246093 -0.1833,0.166636 -0.275391,0.404608 -0.275391,0.679688 0,0.268739 0.09286,0.50203 0.275391,0.667968 0.178068,0.161881 0.401111,0.246094 0.648437,0.246094 0.241112,0 0.461301,-0.08485 0.638672,-0.246094 0.182532,-0.165938 0.275391,-0.399229 0.275391,-0.667968 0,-0.27508 -0.09209,-0.513052 -0.275391,-0.679688 -0.177371,-0.161246 -0.39756,-0.246093 -0.638672,-0.246093 z m 0,0.25 c 0.185556,-1e-6 0.335184,0.05844 0.470703,0.18164 0.12959,0.117809 0.19336,0.271441 0.19336,0.494141 0,0.214817 -0.063,0.363915 -0.19336,0.482422 -0.135519,0.123199 -0.285147,0.18164 -0.470703,0.18164 -0.193563,0 -0.345647,-0.05907 -0.480469,-0.18164 -0.130357,-0.118507 -0.193359,-0.267605 -0.193359,-0.482422 0,-0.2227 0.06377,-0.376332 0.193359,-0.494141 0.134822,-0.122565 0.286906,-0.18164 0.480469,-0.18164 z m -0.763672,2.18164 v 5.830078 h 1.539063 v -0.125 -5.705078 z m 0.25,0.25 h 1.039063 v 5.330078 h -1.039063 z"
         id="path25551" />
    </g>
    <g
       id="path25460">
      <path
         style="color:#000000;-inkscape-font-specification:'Ubuntu Medium';fill:#000000;-inkscape-stroke:none"
         d="m 49.880592,19.055918 q -0.160001,-0.05333 -0.448002,-0.106667 -0.277334,-0.064 -0.650669,-0.064 -0.213334,0 -0.458668,0.04267 -0.234667,0.04267 -0.330667,0.07467 v 4.469347 h -1.290671 v -5.312016 q 0.373334,-0.138667 0.928003,-0.256001 0.565335,-0.128001 1.248004,-0.128001 0.128,0 0.298667,0.02133 0.170668,0.01067 0.341335,0.04267 0.170667,0.02133 0.330668,0.064 0.16,0.032 0.256,0.064 z"
         id="path25557" />
      <path
         style="color:#000000;-inkscape-font-specification:'Ubuntu Medium';fill:#000000;-inkscape-stroke:none"
         d="m 48.876953,17.650391 c -0.462925,0 -0.887932,0.04313 -1.275391,0.130859 -0.373033,0.07899 -0.686809,0.166429 -0.943359,0.261719 l -0.08203,0.0293 v 5.52539 h 1.541015 v -4.496094 c 0.05875,-0.01521 0.115991,-0.03063 0.226563,-0.05078 0.15753,-0.0274 0.303611,-0.04102 0.4375,-0.04102 0.241747,0 0.450132,0.02064 0.623047,0.06055 l 0.002,0.002 h 0.0039 c 0.188741,0.03495 0.334458,0.06917 0.431641,0.101562 l 0.132812,0.04492 0.0293,-0.136719 0.246094,-1.197265 -0.105469,-0.03516 c -0.06984,-0.02328 -0.158164,-0.04507 -0.263672,-0.06641 -0.112348,-0.02996 -0.22847,-0.05151 -0.347656,-0.06641 -0.11354,-0.02098 -0.228044,-0.03554 -0.341797,-0.04297 -0.117594,-0.0147 -0.222176,-0.02344 -0.314453,-0.02344 z m 0,0.25 c 0.07839,0 0.173241,0.0077 0.283203,0.02148 h 0.0039 0.0039 c 0.108601,0.0068 0.217338,0.02061 0.326172,0.04102 h 0.0039 l 0.0039,0.002 c 0.10837,0.01354 0.213467,0.03362 0.314453,0.06055 h 0.0039 l 0.0039,0.002 c 0.05811,0.01162 0.09117,0.02196 0.134765,0.0332 l -0.175781,0.84375 c -0.09592,-0.02592 -0.187739,-0.05112 -0.322266,-0.07617 -0.196863,-0.04543 -0.423654,-0.06836 -0.679687,-0.06836 -0.150556,0 -0.308934,0.01543 -0.478516,0.04492 h -0.002 c -0.158904,0.02889 -0.270481,0.05435 -0.347656,0.08008 l -0.08594,0.02734 v 4.435547 h -1.041015 v -5.091797 c 0.229727,-0.08071 0.496592,-0.159923 0.830078,-0.230468 h 0.002 c 0.366321,-0.08294 0.77145,-0.125 1.21875,-0.125 z"
         id="path25559" />
    </g>
    <g
       id="path25462">
      <path
         style="color:#000000;-inkscape-font-specification:'Ubuntu Medium';fill:#000000;-inkscape-stroke:none"
         d="m 52.963267,22.565262 q 0.597335,0 0.90667,-0.064 v -1.429338 q -0.106667,-0.032 -0.309335,-0.064 -0.202667,-0.032 -0.448001,-0.032 -0.213334,0 -0.437335,0.032 -0.213334,0.032 -0.394668,0.117333 -0.170667,0.08533 -0.277334,0.245334 -0.106667,0.149334 -0.106667,0.384002 0,0.458668 0.288001,0.640002 0.288001,0.170667 0.778669,0.170667 z M 52.8566,17.75458 q 0.640002,0 1.077337,0.160001 0.437335,0.16 0.693335,0.448001 0.266668,0.288001 0.373335,0.704002 0.117334,0.405335 0.117334,0.896003 v 3.381344 q -0.298668,0.064 -0.90667,0.149334 -0.597335,0.096 -1.354671,0.096 -0.501335,0 -0.917336,-0.096 -0.416001,-0.096 -0.714669,-0.309334 -0.288001,-0.213334 -0.458668,-0.554669 -0.160001,-0.341334 -0.160001,-0.842669 0,-0.480002 0.181334,-0.810669 0.192001,-0.330668 0.512002,-0.533335 0.320001,-0.213334 0.736002,-0.298668 0.426668,-0.096 0.885336,-0.096 0.213334,0 0.448002,0.032 0.234667,0.02133 0.501335,0.08533 V 19.95192 q 0,-0.224 -0.05333,-0.426668 -0.05333,-0.202667 -0.192,-0.352001 -0.128001,-0.16 -0.352002,-0.245334 -0.213334,-0.08533 -0.544001,-0.08533 -0.448002,0 -0.821336,0.064 -0.373335,0.064 -0.608002,0.149334 l -0.160001,-1.045337 q 0.245334,-0.08533 0.714669,-0.170667 0.469335,-0.08533 1.00267,-0.08533 z"
         id="path25565" />
      <path
         style="color:#000000;-inkscape-font-specification:'Ubuntu Medium';fill:#000000;-inkscape-stroke:none"
         d="m 52.857422,17.628906 c -0.362224,0 -0.704304,0.02951 -1.025391,0.08789 -0.316333,0.05752 -0.559671,0.115017 -0.734375,0.175781 L 51,17.925781 l 0.199219,1.298828 0.142578,-0.05078 c 0.145869,-0.05304 0.341868,-0.102691 0.585937,-0.144531 0.240682,-0.04126 0.508066,-0.0625 0.800782,-0.0625 0.209692,0 0.376501,0.02951 0.498046,0.07813 h 0.002 c 0.132448,0.05046 0.228942,0.119674 0.298828,0.207031 l 0.002,0.0039 0.0039,0.002 c 0.0787,0.08475 0.131419,0.182196 0.162109,0.298829 0.03267,0.124151 0.04883,0.255118 0.04883,0.394531 v 0.06641 c -0.124259,-0.02479 -0.248539,-0.05207 -0.363282,-0.0625 l 0.0039,0.002 c -0.16147,-0.02202 -0.316372,-0.0332 -0.464844,-0.0332 -0.314499,0 -0.618306,0.03155 -0.91211,0.09766 -0.289857,0.05968 -0.548492,0.165435 -0.77539,0.316407 -0.229748,0.145506 -0.41516,0.339238 -0.552735,0.576171 h -0.002 v 0.002 c -0.13315,0.242803 -0.197265,0.535352 -0.197265,0.871093 0,0.347521 0.05523,0.64568 0.171875,0.894532 l 0.002,0.002 v 0.002 c 0.121697,0.243395 0.28796,0.445436 0.496094,0.599609 h 0.002 c 0.214232,0.153023 0.46905,0.26299 0.759765,0.330078 0.288054,0.06647 0.603111,0.09961 0.945313,0.09961 0.50945,0 0.965129,-0.03253 1.371094,-0.09766 0.406804,-0.0571 0.711041,-0.106467 0.916015,-0.15039 l 0.09766,-0.02148 v -3.482421 c 0,-0.335686 -0.03981,-0.645514 -0.121093,-0.927735 -0.07538,-0.293979 -0.208821,-0.54829 -0.400391,-0.755859 -0.186512,-0.209827 -0.437248,-0.370145 -0.744141,-0.482422 -0.310033,-0.113427 -0.682056,-0.167969 -1.11914,-0.167969 z m 0,0.25 c 0.416251,0 0.760124,0.05244 1.033203,0.152344 0.27622,0.101056 0.487757,0.239888 0.642578,0.414062 l 0.002,0.002 c 0.163039,0.176081 0.27714,0.39061 0.34375,0.65039 l 0.002,0.002 v 0.002 c 0.07448,0.257283 0.111328,0.544181 0.111328,0.861329 v 3.27539 c -0.19297,0.03844 -0.439695,0.08046 -0.798828,0.13086 h -0.002 c -0.390051,0.06269 -0.834376,0.0957 -1.333984,0.0957 -0.326244,0 -0.624012,-0.03222 -0.890625,-0.09375 -0.263024,-0.0607 -0.484357,-0.156391 -0.667969,-0.28711 l -0.002,-0.002 c -0.174106,-0.129501 -0.312712,-0.29626 -0.417969,-0.505859 -0.09669,-0.206261 -0.148437,-0.468138 -0.148437,-0.789063 0,-0.302586 0.05659,-0.550502 0.164062,-0.748047 l 0.002,-0.002 c 2.69e-4,-4.91e-4 -2.69e-4,-0.0015 0,-0.002 0.118152,-0.202191 0.273039,-0.362378 0.46875,-0.486328 l 0.002,-0.002 h 0.002 c 0.198933,-0.132622 0.427978,-0.227213 0.691406,-0.28125 h 0.002 c 0.275087,-0.06189 0.560364,-0.0918 0.857422,-0.0918 0.135972,0 0.28022,0.0086 0.43164,0.0293 l 0.0039,0.002 h 0.002 c 0.149471,0.01359 0.30967,0.04057 0.482422,0.08203 l 0.154297,0.03711 v -0.373047 c 0,-0.159253 -0.0182,-0.310959 -0.05664,-0.457031 -0.0398,-0.15126 -0.113154,-0.287079 -0.216797,-0.400391 -0.100081,-0.124257 -0.238252,-0.218282 -0.402344,-0.28125 -0.162899,-0.06516 -0.358647,-0.0957 -0.589843,-0.0957 -0.30462,0 -0.584701,0.02233 -0.841797,0.06641 -0.194861,0.0334 -0.341061,0.07591 -0.484375,0.119141 L 51.28125,18.105469 c 0.150437,-0.0461 0.331256,-0.09449 0.595703,-0.142578 0.304691,-0.0554 0.631579,-0.08398 0.980469,-0.08398 z m 0.255859,2.972656 c -0.148472,10e-7 -0.300244,0.01108 -0.455078,0.0332 h -0.002 c -0.153204,0.02298 -0.297157,0.06459 -0.429688,0.126953 v 0.002 h -0.002 c -0.131126,0.06556 -0.240038,0.16312 -0.322265,0.285156 -0.08911,0.124756 -0.13086,0.279694 -0.13086,0.455078 0,0.331941 0.11349,0.599886 0.345703,0.746094 l 0.002,0.002 h 0.002 c 0.218784,0.12965 0.500192,0.1875 0.841797,0.1875 0.402687,0 0.709785,-0.0205 0.93164,-0.06641 l 0.09961,-0.01953 v -1.625 l -0.08789,-0.02539 c -0.081,-0.0243 -0.188057,-0.04655 -0.326172,-0.06836 -0.142786,-0.02255 -0.297806,-0.0332 -0.466797,-0.0332 z m 0,0.25 c 0.158121,10e-7 0.300299,0.0092 0.427735,0.0293 0.09151,0.01445 0.144767,0.02735 0.203125,0.04102 v 1.214844 c -0.190271,0.03141 -0.432048,0.05273 -0.78125,0.05273 -0.310811,0 -0.54585,-0.05354 -0.710938,-0.150391 -4.67e-4,-2.94e-4 4.66e-4,-0.0017 0,-0.002 -0.150866,-0.09567 -0.230469,-0.254448 -0.230469,-0.533203 0,-0.137506 0.03087,-0.236191 0.08398,-0.310547 v -0.002 l 0.002,-0.002 c 0.05919,-0.08879 0.132649,-0.153707 0.226562,-0.201172 0.109248,-0.05141 0.228134,-0.08774 0.359375,-0.107422 0.143835,-0.02055 0.28395,-0.0293 0.419922,-0.0293 z"
         id="path25567" />
    </g>
    <g
       id="path25464">
      <path
         style="color:#000000;-inkscape-font-specification:'Ubuntu Medium';fill:#000000;-inkscape-stroke:none"
         d="m 56.696595,23.471931 v -8.064025 l 1.290671,-0.213334 v 2.762675 q 0.213334,-0.07467 0.490668,-0.128 0.288001,-0.05333 0.565335,-0.05333 0.672003,0 1.109337,0.192001 0.448002,0.181334 0.714669,0.522668 0.266668,0.330668 0.373335,0.800003 0.117333,0.469335 0.117333,1.045337 v 3.136009 h -1.29067 v -2.933342 q 0,-0.448002 -0.064,-0.757336 -0.05333,-0.320001 -0.192,-0.512001 -0.128001,-0.202668 -0.352001,-0.288001 -0.224001,-0.096 -0.554669,-0.096 -0.256001,0 -0.522668,0.05333 -0.266668,0.05333 -0.394668,0.096 v 4.437347 z"
         id="path25573" />
      <path
         style="color:#000000;-inkscape-font-specification:'Ubuntu Medium';fill:#000000;-inkscape-stroke:none"
         d="m 58.111328,15.046875 -1.539062,0.255859 v 8.294922 h 0.125 1.414062 v -4.464844 c 0.07692,-0.02175 0.158419,-0.04497 0.294922,-0.07227 0.170235,-0.03404 0.33606,-0.05078 0.498047,-0.05078 0.208348,0 0.376995,0.03071 0.505859,0.08594 l 0.002,0.002 h 0.002 c 0.125971,0.04799 0.219032,0.124307 0.291016,0.238281 l 0.002,0.0039 0.002,0.002 c 0.0776,0.107444 0.138544,0.260934 0.171875,0.460937 v 0.002 0.002 c 0.04024,0.194498 0.06055,0.439706 0.06055,0.732421 v 3.058594 h 1.541016 v -3.261719 c 0,-0.392488 -0.03995,-0.751609 -0.121094,-1.076171 -0.07474,-0.326113 -0.20714,-0.610464 -0.396484,-0.845704 -0.191204,-0.24474 -0.447715,-0.432698 -0.761719,-0.560546 -5.11e-4,-2.25e-4 -0.0014,2.24e-4 -0.002,0 -0.312862,-0.137014 -0.699048,-0.203125 -1.158203,-0.203125 -0.192902,0 -0.388827,0.01978 -0.587891,0.05664 -0.12793,0.0246 -0.234217,0.05816 -0.34375,0.08984 z m -0.25,0.294922 v 2.791015 l 0.167969,-0.05664 c 0.135039,-0.04727 0.292554,-0.09037 0.472656,-0.125 l -0.002,0.002 c 0.184937,-0.03424 0.366092,-0.05273 0.542969,-0.05273 0.436097,0 0.788616,0.06311 1.058593,0.18164 l 0.002,0.002 h 0.002 c 0.281378,0.113892 0.50058,0.275118 0.664062,0.484375 0.16475,0.20429 0.282081,0.452876 0.34961,0.75 v 0.002 c 0.0753,0.301217 0.113281,0.640112 0.113281,1.015625 v 3.011719 h -1.041016 v -2.808594 c 0,-0.30462 -0.02131,-0.565256 -0.06641,-0.783203 -0.0374,-0.221247 -0.105088,-0.406235 -0.208984,-0.552734 l -0.002,-0.002 c -0.09782,-0.153785 -0.236313,-0.268269 -0.40625,-0.333985 -5.32e-4,-2.28e-4 -0.0014,2.28e-4 -0.002,0 -0.169469,-0.0723 -0.36975,-0.107421 -0.601562,-0.107421 -0.179347,0 -0.361555,0.01958 -0.546875,0.05664 -0.180294,0.03606 -0.314938,0.06787 -0.410156,0.09961 l -0.08594,0.0293 v 4.402344 h -1.039062 v -7.833984 z"
         id="path25575" />
    </g>
    <g
       id="path25466">
      <path
         style="color:#000000;-inkscape-font-specification:'Ubuntu Medium';fill:#000000;-inkscape-stroke:none"
         d="m 62.595269,20.709256 q 0,-0.736002 0.213334,-1.290671 0.224001,-0.554668 0.586668,-0.917336 0.362668,-0.373334 0.832003,-0.554668 0.469335,-0.192001 0.960003,-0.192001 1.152004,0 1.792006,0.714669 0.650668,0.714669 0.650668,2.13334 0,0.106667 -0.01067,0.245334 0,0.128001 -0.01067,0.234668 h -3.680012 q 0.05333,0.672002 0.469335,1.045336 0.426668,0.362668 1.226671,0.362668 0.469335,0 0.853336,-0.08533 0.394668,-0.08533 0.618668,-0.181333 l 0.170668,1.056003 q -0.106667,0.05333 -0.298668,0.117334 -0.181334,0.05333 -0.426668,0.096 -0.234667,0.05333 -0.512002,0.08533 -0.277334,0.032 -0.565335,0.032 -0.736002,0 -1.280004,-0.213334 -0.544002,-0.224001 -0.896003,-0.608002 -0.352001,-0.394668 -0.522668,-0.917337 -0.170667,-0.533335 -0.170667,-1.16267 z m 3.744012,-0.576002 q 0,-0.266667 -0.07467,-0.501335 -0.07467,-0.245334 -0.224001,-0.416001 -0.138667,-0.181334 -0.352001,-0.277334 -0.202667,-0.106667 -0.490668,-0.106667 -0.298668,0 -0.522669,0.117334 -0.224,0.106667 -0.384001,0.288 -0.149334,0.181334 -0.234667,0.416002 -0.08533,0.234667 -0.117334,0.480001 z"
         id="path25581" />
      <path
         style="color:#000000;-inkscape-font-specification:'Ubuntu Medium';fill:#000000;-inkscape-stroke:none"
         d="m 65.1875,17.628906 c -0.343416,0 -0.680794,0.06739 -1.007813,0.201172 -0.328226,0.127068 -0.620376,0.322474 -0.873046,0.582031 -0.25521,0.25521 -0.458719,0.576259 -0.613282,0.958985 l -0.002,0.002 c -0.148872,0.387069 -0.220703,0.833193 -0.220703,1.335937 0,0.430855 0.05765,0.832022 0.175781,1.201172 0.118768,0.363726 0.302596,0.686812 0.548828,0.962891 h 0.002 c 0.24816,0.27072 0.562309,0.48533 0.939453,0.640625 h 0.002 c 0.380505,0.149218 0.823427,0.222656 1.326172,0.222656 0.19663,0 0.390294,-0.01131 0.580078,-0.0332 0.185912,-0.02145 0.358059,-0.05 0.517578,-0.08594 l 0.0078,-0.002 c 0.163405,-0.02868 0.308981,-0.06101 0.433594,-0.09766 l 0.002,-0.002 h 0.002 c 0.131294,-0.04377 0.234401,-0.08302 0.314454,-0.123047 l 0.08398,-0.04102 -0.210938,-1.304687 -0.148437,0.0625 c -0.137226,0.05881 -0.337281,0.117955 -0.595703,0.173828 -0.245473,0.05455 -0.520858,0.08203 -0.826172,0.08203 -0.513637,0 -0.889481,-0.115878 -1.144531,-0.332031 h -0.002 c -0.21522,-0.193915 -0.310099,-0.488954 -0.365235,-0.826172 h 3.609375 l 0.0098,-0.111328 c 0.0073,-0.07305 0.01144,-0.153456 0.01172,-0.238281 v -0.0098 c 0.0068,-0.0905 0.01172,-0.17175 0.01172,-0.24414 0,-0.964115 -0.222852,-1.70993 -0.683593,-2.216797 -0.451533,-0.504212 -1.090915,-0.757813 -1.884766,-0.757813 z m 0,0.25 c 0.742153,0 1.297417,0.225149 1.699219,0.673828 0.406059,0.446 0.61914,1.124112 0.61914,2.050782 0,0.06694 -0.0048,0.144375 -0.01172,0.234375 v 0.0059 0.0039 c 0,0.0402 -0.0023,0.07292 -0.0039,0.109375 h -3.697265 l 0.01172,0.134766 c 0.03744,0.471733 0.206659,0.85689 0.509766,1.128906 l 0.002,0.002 c 0.31382,0.266747 0.75637,0.392578 1.308594,0.392578 0.319762,0 0.612846,-0.02893 0.878906,-0.08789 0.205059,-0.04434 0.350141,-0.09413 0.492188,-0.144532 l 0.132812,0.81836 c -0.05751,0.02462 -0.110995,0.04872 -0.199219,0.07813 -0.11421,0.0334 -0.249792,0.06424 -0.408203,0.0918 h -0.0039 -0.0039 c -0.151336,0.03439 -0.317024,0.0631 -0.498047,0.08398 -0.179995,0.02077 -0.36341,0.03125 -0.550781,0.03125 -0.477854,0 -0.88792,-0.07026 -1.232422,-0.205078 h -0.002 c -0.346518,-0.142922 -0.627094,-0.334212 -0.847657,-0.574219 l -0.002,-0.002 c -0.222204,-0.24969 -0.387593,-0.538811 -0.496093,-0.871094 -0.109429,-0.341963 -0.164063,-0.716743 -0.164063,-1.125 0,-0.47859 0.06951,-0.893604 0.205078,-1.246093 0.143952,-0.355561 0.330841,-0.645293 0.558594,-0.873047 v -0.002 c 0.230048,-0.236814 0.491024,-0.410994 0.787109,-0.525391 h 0.002 0.002 c 0.29876,-0.122221 0.601302,-0.183594 0.912109,-0.183594 z m 0.0098,0.828125 c -0.213945,0 -0.407451,0.04137 -0.576172,0.128906 -0.163727,0.07797 -0.306059,0.184889 -0.423828,0.31836 l -0.002,0.002 v 0.002 c -0.108949,0.132296 -0.194501,0.284389 -0.255859,0.453125 -0.05995,0.164875 -0.102482,0.333243 -0.125,0.505859 l -0.01758,0.140625 h 2.667969 v -0.125 c 0,-0.189444 -0.0281,-0.36958 -0.08203,-0.539062 -0.05348,-0.174546 -0.134667,-0.328378 -0.24414,-0.455078 -0.103087,-0.134062 -0.236458,-0.239065 -0.392578,-0.310547 -5.32e-4,-2.8e-4 -0.0014,2.79e-4 -0.002,0 -0.156364,-0.0819 -0.340147,-0.121094 -0.546875,-0.121094 z m 0,0.25 c 0.176568,0 0.320077,0.03205 0.433593,0.0918 l 0.0039,0.002 0.002,0.002 c 0.124606,0.05607 0.224566,0.133508 0.304687,0.238282 l 0.002,0.0039 0.0039,0.0039 c 0.08681,0.09921 0.151893,0.220067 0.197265,0.369141 v 0.002 c 0.0333,0.104657 0.04169,0.221386 0.05078,0.33789 h -2.097656 c 0.02105,-0.104583 0.03922,-0.21088 0.07617,-0.3125 0.05222,-0.143592 0.125181,-0.267772 0.214844,-0.376953 3.51e-4,-4.27e-4 -3.52e-4,-0.0015 0,-0.002 0.0948,-0.106349 0.206622,-0.190467 0.339844,-0.253906 l 0.002,-0.002 h 0.002 c 0.129106,-0.06763 0.282101,-0.103516 0.464844,-0.103516 z"
         id="path25583" />
    </g>
    <g
       id="path25468">
      <path
         style="color:#000000;-inkscape-font-specification:'Ubuntu Medium';fill:#000000;-inkscape-stroke:none"
         d="m 72.899291,18.799917 q -0.213334,0.224 -0.565335,0.629335 -0.341335,0.405335 -0.736003,0.90667 -0.394668,0.490668 -0.800002,1.034669 -0.394668,0.533336 -0.714669,1.024004 h 2.880009 v 1.077336 h -4.437347 v -0.800002 q 0.234667,-0.426668 0.586668,-0.928003 0.352001,-0.501335 0.725336,-1.00267 0.373334,-0.512001 0.736002,-0.97067 0.373335,-0.458668 0.661336,-0.800002 h -2.570675 v -1.077337 h 4.23468 z"
         id="path25589" />
      <path
         style="color:#000000;-inkscape-font-specification:'Ubuntu Medium';fill:#000000;-inkscape-stroke:none"
         d="m 68.539062,17.767578 v 1.328125 h 2.431641 c -0.15408,0.184675 -0.308708,0.367887 -0.494141,0.595703 v 0.002 c -0.24287,0.307161 -0.490461,0.632065 -0.740234,0.97461 -0.248992,0.334402 -0.49173,0.669447 -0.726562,1.003906 -0.236744,0.33718 -0.43455,0.649998 -0.59375,0.939453 l -0.01563,0.0293 v 0.957031 h 4.6875 v -1.328125 h -2.765625 c 0.179287,-0.26759 0.364065,-0.537587 0.576171,-0.824219 0.269367,-0.361518 0.534805,-0.705433 0.796875,-1.03125 0.261787,-0.33254 0.506381,-0.633868 0.732422,-0.902343 l 0.002,-0.002 c 0.232874,-0.268111 0.421073,-0.4766 0.560547,-0.623047 l 0.0332,-0.03711 v -0.04883 -1.033203 z m 0.25,0.25 h 3.984375 v 0.734375 c -0.140786,0.149218 -0.312332,0.341367 -0.533203,0.595703 h -0.002 v 0.002 c -0.228622,0.271489 -0.474463,0.573084 -0.738281,0.908203 -0.264153,0.328407 -0.531656,0.675248 -0.802734,1.039063 -0.264406,0.357306 -0.503892,0.699848 -0.71875,1.029297 l -0.126954,0.193359 h 2.986329 v 0.828125 h -4.1875 v -0.640625 c 0.151574,-0.273156 0.338257,-0.568467 0.564453,-0.890625 0.233984,-0.333251 0.474447,-0.666692 0.722656,-1 l 0.002,-0.002 c 0.247446,-0.339355 0.490309,-0.661052 0.730469,-0.964844 l 0.002,-0.002 c 0.247728,-0.304329 0.467339,-0.570666 0.658203,-0.796875 l 0.173828,-0.205078 h -2.714844 z"
         id="path25591" />
    </g>
    <g
       id="path25470">
      <path
         style="color:#000000;-inkscape-font-specification:'Ubuntu Medium';fill:#000000;-inkscape-stroke:none"
         d="m 73.667283,20.709256 q 0,-0.736002 0.213334,-1.290671 0.224,-0.554668 0.586668,-0.917336 0.362668,-0.373334 0.832003,-0.554668 0.469335,-0.192001 0.960003,-0.192001 1.152004,0 1.792006,0.714669 0.650668,0.714669 0.650668,2.13334 0,0.106667 -0.01067,0.245334 0,0.128001 -0.01067,0.234668 H 75.00062 q 0.05333,0.672002 0.469335,1.045336 0.426668,0.362668 1.226671,0.362668 0.469334,0 0.853336,-0.08533 0.394668,-0.08533 0.618668,-0.181333 l 0.170667,1.056003 q -0.106667,0.05333 -0.298667,0.117334 -0.181334,0.05333 -0.426668,0.096 -0.234668,0.05333 -0.512002,0.08533 -0.277334,0.032 -0.565335,0.032 -0.736002,0 -1.280004,-0.213334 -0.544002,-0.224001 -0.896003,-0.608002 -0.352001,-0.394668 -0.522668,-0.917337 -0.170667,-0.533335 -0.170667,-1.16267 z m 3.744012,-0.576002 q 0,-0.266667 -0.07467,-0.501335 -0.07467,-0.245334 -0.224001,-0.416001 -0.138667,-0.181334 -0.352001,-0.277334 -0.202668,-0.106667 -0.490668,-0.106667 -0.298668,0 -0.522669,0.117334 -0.224,0.106667 -0.384001,0.288 -0.149334,0.181334 -0.234667,0.416002 -0.08533,0.234667 -0.117334,0.480001 z"
         id="path25597" />
      <path
         style="color:#000000;-inkscape-font-specification:'Ubuntu Medium';fill:#000000;-inkscape-stroke:none"
         d="m 76.259766,17.628906 c -0.343416,0 -0.680794,0.06739 -1.007813,0.201172 -0.328226,0.127068 -0.620377,0.322474 -0.873047,0.582031 -0.25521,0.25521 -0.458719,0.576258 -0.613281,0.958985 l -0.002,0.002 c -0.148873,0.387069 -0.220703,0.833193 -0.220703,1.335937 0,0.430856 0.05765,0.832023 0.175781,1.201172 0.118767,0.363726 0.302596,0.686812 0.548828,0.962891 0.24816,0.27072 0.564262,0.48533 0.941406,0.640625 h 0.002 c 0.380506,0.149218 0.823428,0.222656 1.326172,0.222656 0.19663,0 0.390295,-0.01131 0.580078,-0.0332 0.185912,-0.02145 0.358059,-0.05 0.517579,-0.08594 l 0.0078,-0.002 c 0.163404,-0.02868 0.30898,-0.06101 0.433594,-0.09766 l 0.002,-0.002 h 0.002 c 0.131293,-0.04377 0.2344,-0.08302 0.314453,-0.123047 l 0.08203,-0.04102 -0.210937,-1.304687 -0.146484,0.0625 c -0.137227,0.05881 -0.337282,0.117955 -0.595704,0.173828 -0.245474,0.05455 -0.520858,0.08203 -0.826171,0.08203 -0.513638,0 -0.889482,-0.115878 -1.144532,-0.332031 h -0.002 c -0.21522,-0.193915 -0.310099,-0.488954 -0.365234,-0.826172 h 3.607422 l 0.01172,-0.111328 c 0.0073,-0.07305 0.01144,-0.153456 0.01172,-0.238281 v -0.0098 c 0.0068,-0.0905 0.0098,-0.171752 0.0098,-0.24414 0,-0.964114 -0.2209,-1.70993 -0.681641,-2.216797 -0.451533,-0.504212 -1.090915,-0.757813 -1.884765,-0.757813 z m 0,0.25 c 0.742153,0 1.297416,0.225149 1.699218,0.673828 0.406059,0.446 0.617188,1.124112 0.617188,2.050782 0,0.06694 -0.0028,0.144375 -0.0098,0.234375 v 0.0059 0.0039 c 0,0.0402 -0.0023,0.07292 -0.0039,0.109375 h -3.697266 l 0.01172,0.134766 c 0.03744,0.471733 0.206659,0.85689 0.509766,1.128906 l 0.002,0.002 c 0.313819,0.266747 0.75637,0.392578 1.308594,0.392578 0.320464,0 0.612378,-0.02866 0.878906,-0.08789 0.205059,-0.04434 0.350141,-0.09413 0.492187,-0.144532 l 0.132813,0.81836 c -0.05751,0.02462 -0.110996,0.04872 -0.199219,0.07813 -0.114214,0.0334 -0.251738,0.06424 -0.410156,0.0918 h -0.002 -0.0039 c -0.151337,0.03439 -0.317024,0.0631 -0.498046,0.08398 -0.179995,0.02077 -0.363411,0.03125 -0.550782,0.03125 -0.477853,0 -0.887919,-0.07026 -1.232422,-0.205078 h -0.002 c -0.347435,-0.143301 -0.628783,-0.335271 -0.849609,-0.576172 -0.222529,-0.249855 -0.387489,-0.538491 -0.496094,-0.871094 -0.109428,-0.341963 -0.164062,-0.716743 -0.164062,-1.125 0,-0.47859 0.06951,-0.893604 0.205078,-1.246093 0.143951,-0.355561 0.33084,-0.645293 0.558594,-0.873047 v -0.002 c 0.230048,-0.236814 0.491024,-0.410994 0.787109,-0.525391 h 0.002 c 0.298761,-0.122221 0.603255,-0.183594 0.914063,-0.183594 z m 0.0098,0.828125 c -0.213944,0 -0.40745,0.04137 -0.576172,0.128906 -0.163727,0.07797 -0.306059,0.184889 -0.423828,0.31836 l -0.002,0.002 v 0.002 c -0.108949,0.132296 -0.194501,0.284389 -0.255859,0.453125 -0.05995,0.164875 -0.102482,0.333243 -0.125,0.505859 l -0.01758,0.140625 h 2.667968 v -0.125 c 0,-0.189444 -0.0281,-0.36958 -0.08203,-0.539062 -0.05348,-0.174546 -0.134667,-0.328378 -0.244141,-0.455078 -0.103086,-0.134062 -0.236458,-0.239065 -0.392578,-0.310547 -5.31e-4,-2.8e-4 -0.0014,2.79e-4 -0.002,0 -0.156364,-0.0819 -0.340147,-0.121094 -0.546875,-0.121094 z m 0,0.25 c 0.176568,0 0.320077,0.03205 0.433594,0.0918 l 0.002,0.002 0.0039,0.002 c 0.124607,0.05607 0.224567,0.133508 0.304688,0.238282 l 0.002,0.0039 0.002,0.0039 c 0.08681,0.09921 0.153847,0.220067 0.199219,0.369141 v 0.002 c 0.0333,0.104657 0.04169,0.221386 0.05078,0.33789 h -2.097656 c 0.02105,-0.104583 0.03922,-0.21088 0.07617,-0.3125 0.05189,-0.142707 0.122059,-0.266295 0.210937,-0.375 0.09556,-0.108306 0.208811,-0.193555 0.34375,-0.257812 l 0.002,-0.002 h 0.002 c 0.129106,-0.06763 0.282102,-0.103516 0.464844,-0.103516 z"
         id="path25599" />
    </g>
  </g>
  <g
     aria-label="Hosted by"
     id="text7627"
     style="font-size:9.33333px;font-family:Arial;-inkscape-font-specification:Arial">
    <path
       style="color:#000000;-inkscape-font-specification:Roboto;fill:#000000;-inkscape-stroke:none"
       d="m 39.746787,13.230069 h -0.879558 v -3.067057 h -3.345052 v 3.067057 h -0.875 V 6.5946527 h 0.875 v 2.8528645 h 3.345052 V 6.5946527 h 0.879558 z"
       id="path25439" />
    <path
       style="color:#000000;-inkscape-font-specification:Roboto;fill:#000000;-inkscape-stroke:none"
       d="m 40.945354,10.719002 q 0,-0.7246098 0.282552,-1.3033858 0.28711,-0.5787761 0.792969,-0.8932292 0.510417,-0.3144531 1.162109,-0.3144531 1.007162,0 1.626953,0.6972656 0.624349,0.6972656 0.624349,1.8548175 v 0.05925 q 0,0.720052 -0.277995,1.294271 -0.273437,0.569661 -0.788411,0.888672 -0.510417,0.31901 -1.175781,0.31901 -1.002604,0 -1.626953,-0.697266 -0.619792,-0.697265 -0.619792,-1.845703 z m 0.847656,0.10026 q 0,0.820312 0.378256,1.317057 0.382812,0.496745 1.020833,0.496745 0.642578,0 1.020833,-0.501302 0.378255,-0.505859 0.378255,-1.41276 0,-0.8111984 -0.387369,-1.3125004 -0.382813,-0.5058594 -1.020834,-0.5058594 -0.624349,0 -1.007161,0.4967448 -0.382813,0.4967448 -0.382813,1.421875 z"
       id="path25441" />
    <path
       style="color:#000000;-inkscape-font-specification:Roboto;fill:#000000;-inkscape-stroke:none"
       d="m 49.362672,11.922126 q 0,-0.341796 -0.259766,-0.528645 -0.255208,-0.191407 -0.897786,-0.328125 -0.638021,-0.136719 -1.016276,-0.328125 -0.373698,-0.191407 -0.55599,-0.455729 -0.177734,-0.264323 -0.177734,-0.6289067 0,-0.6061197 0.510417,-1.0253906 0.514974,-0.4192708 1.3125,-0.4192708 0.838541,0 1.358073,0.4329427 0.524088,0.4329427 0.524088,1.1074218 h -0.847656 q 0,-0.3463541 -0.296224,-0.5970051 -0.291667,-0.2506511 -0.738281,-0.2506511 -0.460287,0 -0.720052,0.2005209 -0.259766,0.2005208 -0.259766,0.5240885 0,0.3053385 0.241536,0.4602864 0.241537,0.154948 0.870443,0.296224 0.633464,0.141276 1.025391,0.33724 0.391927,0.195963 0.578776,0.473958 0.191406,0.273437 0.191406,0.669922 0,0.660807 -0.528646,1.061849 -0.528646,0.396484 -1.371745,0.396484 -0.592447,0 -1.048177,-0.209635 Q 46.801474,12.901944 46.541709,12.528246 46.2865,12.149991 46.2865,11.712491 h 0.843099 q 0.02279,0.423828 0.33724,0.674479 0.31901,0.246094 0.838541,0.246094 0.478516,0 0.765625,-0.191406 0.291667,-0.195964 0.291667,-0.519532 z"
       id="path25443" />
    <path
       style="color:#000000;-inkscape-font-specification:Roboto;fill:#000000;-inkscape-stroke:none"
       d="m 52.447959,7.1050694 v 1.1940103 h 0.920572 v 0.6516927 h -0.920572 v 3.0579426 q 0,0.296224 0.123046,0.446615 0.123047,0.145833 0.419271,0.145833 0.145834,0 0.401042,-0.05469 v 0.683594 q -0.332682,0.09115 -0.647135,0.09115 -0.565105,0 -0.852214,-0.341797 Q 51.60486,12.637621 51.60486,12.008715 V 8.9507724 H 50.707073 V 8.2990797 H 51.60486 V 7.1050694 Z"
       id="path25445" />
    <path
       style="color:#000000;-inkscape-font-specification:Roboto;fill:#000000;-inkscape-stroke:none"
       d="m 56.39913,13.321215 q -1.002604,0 -1.63151,-0.65625 -0.628906,-0.660807 -0.628906,-1.763672 v -0.154948 q 0,-0.733724 0.277995,-1.3079424 0.282552,-0.578776 0.783854,-0.9023437 0.505859,-0.328125 1.09375,-0.328125 0.961588,0 1.494791,0.6334635 0.533203,0.6334636 0.533203,1.8138016 v 0.350912 h -3.340494 q 0.01823,0.729167 0.423828,1.180338 0.410156,0.446615 1.039062,0.446615 0.446615,0 0.756511,-0.182292 0.309896,-0.182291 0.542317,-0.483073 l 0.514974,0.401042 q -0.619791,0.952474 -1.859375,0.952474 z M 56.294313,8.9006422 q -0.510417,0 -0.856771,0.3736979 -0.346354,0.3691406 -0.428385,1.0390629 h 2.470052 v -0.0638 Q 57.44275,9.6070224 57.132854,9.256111 56.822959,8.9006422 56.294313,8.9006422 Z"
       id="path25447" />
    <path
       style="color:#000000;-inkscape-font-specification:Roboto;fill:#000000;-inkscape-stroke:none"
       d="m 59.092489,10.723559 q 0,-1.1347658 0.53776,-1.8229168 0.53776,-0.6927083 1.408203,-0.6927083 0.865885,0 1.371745,0.5924479 V 6.2300694 h 0.843099 v 6.9999996 h -0.77474 l -0.04101,-0.528646 q -0.50586,0.619792 -1.408204,0.619792 -0.85677,0 -1.399088,-0.701823 -0.53776,-0.701823 -0.53776,-1.832031 z m 0.843099,0.0957 q 0,0.838542 0.346354,1.3125 0.346354,0.473958 0.957031,0.473958 0.802083,0 1.171224,-0.720052 V 9.6206943 q -0.378255,-0.6972656 -1.16211,-0.6972656 -0.619791,0 -0.966145,0.4785156 -0.346354,0.4785156 -0.346354,1.4173177 z"
       id="path25449" />
    <path
       style="color:#000000;-inkscape-font-specification:Roboto;fill:#000000;-inkscape-stroke:none"
       d="m 71.046264,10.819262 q 0,1.130208 -0.519531,1.818359 -0.519531,0.683594 -1.394531,0.683594 -0.934245,0 -1.444661,-0.660807 l -0.04102,0.569661 h -0.77474 V 6.2300694 h 0.843099 v 2.611328 q 0.510417,-0.6334635 1.408203,-0.6334635 0.897787,0 1.408204,0.6790365 0.514973,0.6790364 0.514973,1.8593746 z m -0.843098,-0.0957 q 0,-0.8613283 -0.332683,-1.3307293 -0.332682,-0.469401 -0.957031,-0.469401 -0.833984,0 -1.198568,0.7747395 v 2.1328128 q 0.38737,0.774739 1.207683,0.774739 0.606119,0 0.943359,-0.469401 0.33724,-0.469401 0.33724,-1.41276 z"
       id="path25451" />
    <path
       style="color:#000000;-inkscape-font-specification:Roboto;fill:#000000;-inkscape-stroke:none"
       d="m 73.671266,11.995043 1.148437,-3.6959633 h 0.902344 l -1.982422,5.6920573 q -0.460286,1.230469 -1.46289,1.230469 l -0.159506,-0.01367 -0.314453,-0.05925 v -0.683594 l 0.227865,0.01823 q 0.428385,0 0.665364,-0.173177 0.241537,-0.173177 0.396485,-0.633463 L 73.279339,13.17538 71.520224,8.2990777 h 0.920573 z"
       id="path25453" />
  </g>
</svg>
